<svg xmlns="http://www.w3.org/2000/svg" width="800mm" height="2000mm" viewBox="0 0 800 2000">
  <defs>
    <linearGradient id="bgGrad" x1="0" y1="0" x2="0" y2="1">
      <stop offset="0" stop-color="#070914"/>
      <stop offset="0.55" stop-color="#06030D"/>
      <stop offset="1" stop-color="#03020A"/>
    </linearGradient>
    <linearGradient id="neonGrad" x1="0" y1="0" x2="1" y2="1">
      <stop offset="0" stop-color="#00E5FF"/>
      <stop offset="0.5" stop-color="#7C4DFF"/>
      <stop offset="1" stop-color="#FF2BD6"/>
    </linearGradient>
    <filter id="glowCyan" x="-50%" y="-50%" width="200%" height="200%">
      <feGaussianBlur stdDeviation="3.5" result="b"/>
      <feColorMatrix in="b" type="matrix" values="0 0 0 0 0   0 0 0 0 0.9   0 0 0 0 1   0 0 0 0.9 0" result="c"/>
      <feMerge>
        <feMergeNode in="c"/>
        <feMergeNode in="SourceGraphic"/>
      </feMerge>
    </filter>
    <filter id="glowMag" x="-50%" y="-50%" width="200%" height="200%">
      <feGaussianBlur stdDeviation="4.2" result="b"/>
      <feColorMatrix in="b" type="matrix" values="0 0 0 0 1   0 0 0 0 0.1   0 0 0 0 0.9   0 0 0 0.85 0" result="c"/>
      <feMerge>
        <feMergeNode in="c"/>
        <feMergeNode in="SourceGraphic"/>
      </feMerge>
    </filter>
    <filter id="shadowSoft" x="-20%" y="-20%" width="140%" height="140%">
      <feDropShadow dx="0" dy="10" stdDeviation="14" flood-color="#000000" flood-opacity="0.55"/>
    </filter>
    <clipPath id="heroClip">
      <rect x="0" y="0" width="800" height="1120" rx="0"/>
    </clipPath>
  </defs>

  <rect x="0" y="0" width="800" height="2000" fill="url(#bgGrad)"/>

  <g clip-path="url(#heroClip)">
    <image x="0" y="-120" width="800" height="1400" preserveAspectRatio="xMidYMid slice" href="https://coresg-normal.trae.ai/api/ide/v1/text_to_image?prompt=cyberpunk%20neon%20night%20city%20street%20racing%2C%20futuristic%20sports%20car%20drifting%20with%20motion%20blur%2C%20wet%20asphalt%20reflections%2C%20skyscrapers%2C%20dynamic%20perspective%2C%20cinematic%2C%20high%20contrast%2C%20ultra%20detailed%2C%20no%20text%2C%20no%20logos&image_size=portrait_16_9"/>
    <rect x="0" y="0" width="800" height="1120" fill="#050612" opacity="0.45"/>
    <rect x="0" y="820" width="800" height="360" fill="url(#bgGrad)" opacity="0.75"/>

    <path d="M-80 820 C 90 650, 290 720, 440 610 C 620 475, 740 505, 900 360" fill="none" stroke="url(#neonGrad)" stroke-width="6" opacity="0.7" filter="url(#glowCyan)"/>
    <path d="M-60 900 C 120 720, 320 790, 480 670 C 640 540, 740 560, 920 420" fill="none" stroke="#FF2BD6" stroke-width="3" opacity="0.55" filter="url(#glowMag)"/>

    <g transform="translate(64,120)">
      <text x="0" y="0" fill="#EAF6FF" font-size="118" font-weight="900" font-family="Inter, 'Microsoft YaHei', 'PingFang SC', system-ui, sans-serif" letter-spacing="6" filter="url(#glowCyan)">RACE</text>
      <text x="4" y="64" fill="#00E5FF" font-size="28" font-weight="700" font-family="Inter, 'Microsoft YaHei', 'PingFang SC', system-ui, sans-serif" opacity="0.95">城市赛车 · 陀螺仪手动控制</text>
      <text x="4" y="104" fill="#B7C6FF" font-size="22" font-weight="600" font-family="Inter, 'Microsoft YaHei', 'PingFang SC', system-ui, sans-serif" opacity="0.92">像握方向盘一样转向，冲线计时，随时开跑</text>
    </g>

    <g transform="translate(64,1020)">
      <rect x="0" y="-86" width="672" height="120" rx="22" fill="#0B0D23" opacity="0.82" filter="url(#shadowSoft)"/>
      <rect x="0" y="-86" width="672" height="120" rx="22" fill="none" stroke="url(#neonGrad)" stroke-width="2.5" opacity="0.65"/>
      <text x="28" y="-32" fill="#EAF6FF" font-size="30" font-weight="800" font-family="Inter, 'Microsoft YaHei', 'PingFang SC', system-ui, sans-serif">一握即跑，城市就是赛道</text>
      <text x="28" y="12" fill="#B7C6FF" font-size="20" font-weight="600" font-family="Inter, 'Microsoft YaHei', 'PingFang SC', system-ui, sans-serif" opacity="0.95">H5轻量试玩 · 低门槛上手 · 可玩闭环</text>
    </g>
  </g>

  <g transform="translate(64,1200)">
    <rect x="0" y="0" width="672" height="736" rx="26" fill="#090B1C" opacity="0.84" filter="url(#shadowSoft)"/>
    <rect x="0" y="0" width="672" height="736" rx="26" fill="none" stroke="#1E2750" stroke-width="2" opacity="0.9"/>

    <g transform="translate(0,0)">
      <rect x="0" y="0" width="336" height="736" rx="26" fill="none"/>
      <rect x="18" y="26" width="300" height="66" rx="16" fill="#0E1230" opacity="0.95"/>
      <rect x="18" y="26" width="300" height="66" rx="16" fill="none" stroke="url(#neonGrad)" stroke-width="2" opacity="0.65"/>
      <text x="42" y="70" fill="#EAF6FF" font-size="30" font-weight="900" font-family="Inter, 'Microsoft YaHei', 'PingFang SC', system-ui, sans-serif" filter="url(#glowCyan)">创新点</text>

      <g transform="translate(28,122)" font-family="Inter, 'Microsoft YaHei', 'PingFang SC', system-ui, sans-serif">
        <g>
          <circle cx="10" cy="10" r="6" fill="#00E5FF" filter="url(#glowCyan)"/>
          <text x="28" y="16" fill="#EAF6FF" font-size="22" font-weight="800">陀螺仪手动控制</text>
          <text x="28" y="46" fill="#B7C6FF" font-size="18" font-weight="600" opacity="0.95">倾斜即转向，像握方向盘一样自然</text>
        </g>

        <g transform="translate(0,98)">
          <circle cx="10" cy="10" r="6" fill="#7C4DFF" filter="url(#glowCyan)"/>
          <text x="28" y="16" fill="#EAF6FF" font-size="22" font-weight="800">真实手感与稳定输入</text>
          <text x="28" y="46" fill="#B7C6FF" font-size="18" font-weight="600" opacity="0.95">平滑滤波，低延迟，稳准不抖</text>
        </g>

        <g transform="translate(0,196)">
          <circle cx="10" cy="10" r="6" fill="#FF2BD6" filter="url(#glowMag)"/>
          <text x="28" y="16" fill="#EAF6FF" font-size="22" font-weight="800">竞赛 × 休闲双玩法</text>
          <text x="28" y="46" fill="#B7C6FF" font-size="18" font-weight="600" opacity="0.95">计时挑战冲榜，也能随心巡航</text>
        </g>

        <g transform="translate(0,294)">
          <rect x="-10" y="-10" width="304" height="178" rx="18" fill="#0D1030" opacity="0.9"/>
          <rect x="-10" y="-10" width="304" height="178" rx="18" fill="none" stroke="#2A2F68" stroke-width="1.5" opacity="0.9"/>
          <text x="10" y="22" fill="#00E5FF" font-size="18" font-weight="900">未来拓展</text>
          <text x="10" y="58" fill="#EAF6FF" font-size="20" font-weight="800">多人竞技</text>
          <text x="10" y="92" fill="#EAF6FF" font-size="20" font-weight="800">物理赛道</text>
          <text x="10" y="126" fill="#EAF6FF" font-size="20" font-weight="800">AI虚拟赛车</text>
        </g>
      </g>
    </g>

    <g transform="translate(336,0)">
      <rect x="0" y="0" width="336" height="736" rx="26" fill="none"/>
      <rect x="18" y="26" width="300" height="66" rx="16" fill="#0E1230" opacity="0.95"/>
      <rect x="18" y="26" width="300" height="66" rx="16" fill="none" stroke="url(#neonGrad)" stroke-width="2" opacity="0.65"/>
      <text x="42" y="70" fill="#EAF6FF" font-size="30" font-weight="900" font-family="Inter, 'Microsoft YaHei', 'PingFang SC', system-ui, sans-serif" filter="url(#glowMag)">游戏玩法</text>

      <g transform="translate(28,122)" font-family="Inter, 'Microsoft YaHei', 'PingFang SC', system-ui, sans-serif">
        <g>
          <rect x="0" y="0" width="280" height="74" rx="18" fill="#0D1030" opacity="0.9"/>
          <text x="18" y="30" fill="#EAF6FF" font-size="20" font-weight="800">1. 启用传感器</text>
          <text x="18" y="56" fill="#B7C6FF" font-size="16" font-weight="600" opacity="0.95">iOS 一键授权，支持触控兜底</text>
        </g>

        <g transform="translate(0,92)">
          <rect x="0" y="0" width="280" height="74" rx="18" fill="#0D1030" opacity="0.9"/>
          <text x="18" y="30" fill="#EAF6FF" font-size="20" font-weight="800">2. 校准中位</text>
          <text x="18" y="56" fill="#B7C6FF" font-size="16" font-weight="600" opacity="0.95">当前握持角度就是“方向盘中心”</text>
        </g>

        <g transform="translate(0,184)">
          <rect x="0" y="0" width="280" height="96" rx="18" fill="#0D1030" opacity="0.9"/>
          <text x="18" y="30" fill="#EAF6FF" font-size="20" font-weight="800">3. 倾斜转向跑图</text>
          <text x="18" y="56" fill="#B7C6FF" font-size="16" font-weight="600" opacity="0.95">控车贴线过弯，出界有惩罚</text>
          <text x="18" y="80" fill="#B7C6FF" font-size="16" font-weight="600" opacity="0.95">速度与用时实时展示</text>
        </g>

        <g transform="translate(0,302)">
          <rect x="0" y="0" width="280" height="96" rx="18" fill="#0D1030" opacity="0.9"/>
          <text x="18" y="30" fill="#EAF6FF" font-size="20" font-weight="800">4. 冲线计时结算</text>
          <text x="18" y="56" fill="#B7C6FF" font-size="16" font-weight="600" opacity="0.95">展示用时，一键重开再战</text>
          <text x="18" y="80" fill="#B7C6FF" font-size="16" font-weight="600" opacity="0.95">竞速挑战 or 休闲巡航</text>
        </g>

        <g transform="translate(0,428)">
          <rect x="0" y="0" width="280" height="160" rx="22" fill="none" stroke="url(#neonGrad)" stroke-width="2.5" opacity="0.85"/>
          <text x="18" y="46" fill="#EAF6FF" font-size="34" font-weight="900" filter="url(#glowCyan)">NOW</text>
          <text x="18" y="86" fill="#EAF6FF" font-size="34" font-weight="900" filter="url(#glowMag)">START</text>
          <text x="18" y="126" fill="#B7C6FF" font-size="18" font-weight="700" opacity="0.95">准备好，把手机当方向盘</text>
        </g>
      </g>
    </g>
  </g>

  <g transform="translate(64,1960)">
    <path d="M0 0 H672" stroke="#1E2750" stroke-width="2" opacity="0.8"/>
    <text x="0" y="28" fill="#6670A6" font-size="16" font-weight="600" font-family="Inter, 'Microsoft YaHei', 'PingFang SC', system-ui, sans-serif" opacity="0.95">RACE · 城市赛车陀螺仪试玩原型</text>
  </g>
</svg>

